<?xml version="1.0" encoding="utf-8"?>
<!-- Generator: Adobe Illustrator 24.0.3, SVG Export Plug-In . SVG Version: 6.00 Build 0)  -->
<svg version="1.1" id="Layer_1" xmlns="http://www.w3.org/2000/svg" xmlns:xlink="http://www.w3.org/1999/xlink" x="0px" y="0px"
	 viewBox="0 0 300 300" style="enable-background:new 0 0 300 300;" xml:space="preserve">
<style type="text/css">
	.st0{fill:#AAAAAA;}
</style>
<g>
	<g>
		<path class="st0" d="M43.5,149.6c0-22-16.7-40.4-38.1-43c-3.5,13.9-5.4,28.2-5.4,43s1.9,29.4,5.4,43
			C26.9,190,43.5,171.6,43.5,149.6z"/>
		<path class="st0" d="M68.6,136c-7.5,0-13.6,6.1-13.6,13.6c0,7.5,6.1,13.6,13.6,13.6s13.6-6.1,13.6-13.6
			C82.2,142.1,76.2,136,68.6,136z"/>
		<path class="st0" d="M256.5,149.6c0,22,16.7,40.4,38.1,43c3.5-13.9,5.4-28.2,5.4-43s-1.9-29.4-5.4-43
			C273.2,109.2,256.5,127.5,256.5,149.6z"/>
		<path class="st0" d="M231.4,136c-7.5,0-13.6,6.1-13.6,13.6c0,7.5,6.1,13.6,13.6,13.6c7.5,0,13.6-6.1,13.6-13.6
			C245.1,142.1,238.9,136,231.4,136z"/>
		<path class="st0" d="M149.7,256.4c-22,0-40.4,16.7-43,38.1c13.9,3.5,28.2,5.4,43,5.4s29.4-1.9,43-5.4
			C190,273.1,172,256.4,149.7,256.4z"/>
		<path class="st0" d="M149.7,217.7c-7.5,0-13.6,6.1-13.6,13.6s6.1,13.6,13.6,13.6c7.5,0,13.6-6.1,13.6-13.6
			S157.2,217.7,149.7,217.7z"/>
		<path class="st0" d="M149.7,43.2c22,0,40.4-16.7,43-38.1c-13.9-3.5-28.2-5.4-43-5.4c-14.8,0-29.4,1.9-43,5.4
			C109.3,26.8,127.6,43.2,149.7,43.2z"/>
		<path class="st0" d="M149.7,54.9c-7.5,0-13.6,6.1-13.6,13.6s6.1,13.6,13.6,13.6c7.5,0,13.6-6.1,13.6-13.6S157.2,54.9,149.7,54.9z"
			/>
		<path class="st0" d="M225.3,225c-15.8,15.8-16.9,40.4-3.5,57.3c25.1-14.8,46.1-35.7,60.8-60.8C265.5,208.3,240.8,209.5,225.3,225z
			"/>
		<path class="st0" d="M197.8,197.7c-5.4,5.4-5.4,13.9,0,19.3s13.9,5.4,19.3,0c5.4-5.4,5.4-13.9,0-19.3S203,192.3,197.8,197.7z"/>
		<path class="st0" d="M74.5,74.4C90.2,58.7,91.4,34,78,17.1C52.9,32,31.9,52.9,17.2,77.9C34.1,91.1,58.8,89.9,74.5,74.4z"/>
		<path class="st0" d="M82.7,82.7c-5.4,5.4-5.4,13.9,0,19.3c5.4,5.4,13.9,5.4,19.3,0c5.4-5.4,5.4-13.9,0-19.3
			C96.6,77.3,87.9,77.3,82.7,82.7z"/>
		<path class="st0" d="M225.1,74.2c15.8,15.8,40.4,16.9,57.3,3.5c-14.8-25.1-35.7-46.1-60.8-60.8C208.4,33.8,209.6,58.5,225.1,74.2z
			"/>
		<path class="st0" d="M216.8,101.7c5.4-5.4,5.4-13.9,0-19.3c-5.4-5.4-13.9-5.4-19.3,0c-5.4,5.4-5.4,13.9,0,19.3
			C203,107,211.7,107,216.8,101.7z"/>
		<path class="st0" d="M74.3,225c-15.8-15.8-40.4-16.9-57.3-3.5c14.8,25.1,35.7,46.1,60.8,60.8C91.2,265.1,90.1,240.5,74.3,225z"/>
		<path class="st0" d="M82.5,197.5c-5.4,5.4-5.4,13.9,0,19.3s13.9,5.4,19.3,0c5.4-5.4,5.4-13.9,0-19.3
			C96.6,192.1,87.9,192.1,82.5,197.5z"/>
	</g>
</g>
</svg>
